<?xml version="1.0" encoding="UTF-8" standalone="no"?>
<!DOCTYPE svg PUBLIC "-//W3C//DTD SVG 1.1//EN"
 "http://www.w3.org/Graphics/SVG/1.1/DTD/svg11.dtd">
<!-- Generated by graphviz version 2.26.3 (20100126.1600)
 -->
<!-- Title: G Pages: 1 -->
<svg width="112pt" height="136pt"
 viewBox="0.00 0.00 112.00 136.00" xmlns="http://www.w3.org/2000/svg" xmlns:xlink="http://www.w3.org/1999/xlink">
<g id="graph1" class="graph" transform="scale(1 1) rotate(0) translate(4 132)">
<title>G</title>
<polygon fill="white" stroke="white" points="-4,5 -4,-132 109,-132 109,5 -4,5"/>
<g id="graph2" class="cluster"><title>cluster_Global</title>
<polyline fill="none" stroke="gray" points="20,-8 84,-8 "/>
<path fill="none" stroke="gray" d="M84,-8C90,-8 96,-14 96,-20"/>
<polyline fill="none" stroke="gray" points="96,-20 96,-108 "/>
<path fill="none" stroke="gray" d="M96,-108C96,-114 90,-120 84,-120"/>
<polyline fill="none" stroke="gray" points="84,-120 20,-120 "/>
<path fill="none" stroke="gray" d="M20,-120C14,-120 8,-114 8,-108"/>
<polyline fill="none" stroke="gray" points="8,-108 8,-20 "/>
<path fill="none" stroke="gray" d="M8,-20C8,-14 14,-8 20,-8"/>
<text text-anchor="middle" x="52" y="-106.1" font-family="Times Roman,serif" font-size="11.00" fill="gray">Global</text>
</g>
<g id="graph3" class="cluster"><title>cluster_\DI</title>
<polyline fill="none" stroke="gray" points="28,-16 76,-16 "/>
<path fill="none" stroke="gray" d="M76,-16C82,-16 88,-22 88,-28"/>
<polyline fill="none" stroke="gray" points="88,-28 88,-78 "/>
<path fill="none" stroke="gray" d="M88,-78C88,-84 82,-90 76,-90"/>
<polyline fill="none" stroke="gray" points="76,-90 28,-90 "/>
<path fill="none" stroke="gray" d="M28,-90C22,-90 16,-84 16,-78"/>
<polyline fill="none" stroke="gray" points="16,-78 16,-28 "/>
<path fill="none" stroke="gray" d="M16,-28C16,-22 22,-16 28,-16"/>
<text text-anchor="middle" x="52" y="-76.1" font-family="Times Roman,serif" font-size="11.00" fill="gray">DI</text>
</g>
<!-- \\DI\\Injector -->
<g id="node3" class="node"><title>\\DI\\Injector</title>
<polygon fill="none" stroke="black" points="80,-60 24,-60 24,-24 80,-24 80,-60"/>
<text text-anchor="middle" x="52" y="-39.1" font-family="Times Roman,serif" font-size="11.00">Injector</text>
</g>
</g>
</svg>
