<?xml version="1.0" encoding="UTF-8" standalone="no"?>
<!DOCTYPE svg PUBLIC "-//W3C//DTD SVG 1.1//EN"
 "http://www.w3.org/Graphics/SVG/1.1/DTD/svg11.dtd">
<!-- Generated by graphviz version 2.26.3 (20100126.1600)
 -->
<!-- Title: G Pages: 1 -->
<svg width="800pt" height="244pt"
 viewBox="0.00 0.00 800.00 244.00" xmlns="http://www.w3.org/2000/svg" xmlns:xlink="http://www.w3.org/1999/xlink">
<g id="graph1" class="graph" transform="scale(1 1) rotate(0) translate(4 240)">
<title>G</title>
<polygon fill="white" stroke="white" points="-4,5 -4,-240 797,-240 797,5 -4,5"/>
<g id="graph2" class="cluster"><title>cluster_Global</title>
<polyline fill="none" stroke="gray" points="572,-8 772,-8 "/>
<path fill="none" stroke="gray" d="M772,-8C778,-8 784,-14 784,-20"/>
<polyline fill="none" stroke="gray" points="784,-20 784,-216 "/>
<path fill="none" stroke="gray" d="M784,-216C784,-222 778,-228 772,-228"/>
<polyline fill="none" stroke="gray" points="772,-228 572,-228 "/>
<path fill="none" stroke="gray" d="M572,-228C566,-228 560,-222 560,-216"/>
<polyline fill="none" stroke="gray" points="560,-216 560,-20 "/>
<path fill="none" stroke="gray" d="M560,-20C560,-14 566,-8 572,-8"/>
<text text-anchor="middle" x="672" y="-214.1" font-family="Times Roman,serif" font-size="11.00" fill="gray">Global</text>
</g>
<g id="graph3" class="cluster"><title>cluster_\DI</title>
<polyline fill="none" stroke="gray" points="580,-16 764,-16 "/>
<path fill="none" stroke="gray" d="M764,-16C770,-16 776,-22 776,-28"/>
<polyline fill="none" stroke="gray" points="776,-28 776,-186 "/>
<path fill="none" stroke="gray" d="M776,-186C776,-192 770,-198 764,-198"/>
<polyline fill="none" stroke="gray" points="764,-198 580,-198 "/>
<path fill="none" stroke="gray" d="M580,-198C574,-198 568,-192 568,-186"/>
<polyline fill="none" stroke="gray" points="568,-186 568,-28 "/>
<path fill="none" stroke="gray" d="M568,-28C568,-22 574,-16 580,-16"/>
<text text-anchor="middle" x="672" y="-184.1" font-family="Times Roman,serif" font-size="11.00" fill="gray">DI</text>
</g>
<!-- \\DI\\ReferenceNotFoundException -->
<g id="node3" class="node"><title>\\DI\\ReferenceNotFoundException</title>
<polygon fill="none" stroke="black" points="768,-168 576,-168 576,-132 768,-132 768,-168"/>
<text text-anchor="middle" x="672" y="-147.1" font-family="Courier,monospace" font-size="11.00">ReferenceNotFoundException</text>
</g>
<!-- \\RuntimeException -->
<g id="node7" class="node"><title>\\RuntimeException</title>
<ellipse fill="none" stroke="black" cx="252" cy="-150" rx="103.238" ry="18.3848"/>
<text text-anchor="middle" x="252" y="-146.4" font-family="Times Roman,serif" font-size="14.00" fill="gray">\RuntimeException</text>
</g>
<!-- \\DI\\ReferenceNotFoundException&#45;&gt;\\RuntimeException -->
<g id="edge4" class="edge"><title>\\DI\\ReferenceNotFoundException&#45;&gt;\\RuntimeException</title>
<path fill="none" stroke="black" d="M575.907,-150C513.144,-150 430.917,-150 365.018,-150"/>
<polygon fill="none" stroke="black" points="365.003,-146.5 355.003,-150 365.003,-153.5 365.003,-146.5"/>
</g>
<!-- \\Interop\\Container\\Exception\\NotFoundException -->
<g id="node9" class="node"><title>\\Interop\\Container\\Exception\\NotFoundException</title>
<ellipse fill="none" stroke="black" cx="252" cy="-204" rx="251.023" ry="18.3848"/>
<text text-anchor="middle" x="252" y="-200.4" font-family="Times Roman,serif" font-size="14.00" fill="gray">\Interop\Container\Exception\NotFoundException</text>
</g>
<!-- \\DI\\ReferenceNotFoundException&#45;&gt;\\Interop\\Container\\Exception\\NotFoundException -->
<g id="edge6" class="edge"><title>\\DI\\ReferenceNotFoundException&#45;&gt;\\Interop\\Container\\Exception\\NotFoundException</title>
<path fill="none" stroke="black" stroke-dasharray="1,5" d="M575.737,-166.363C552.299,-170.1 527.278,-173.885 504,-177 473.698,-181.055 441.282,-184.898 410.131,-188.345"/>
<polygon fill="none" stroke="black" points="409.624,-184.88 400.066,-189.45 410.388,-191.838 409.624,-184.88"/>
</g>
<!-- \\DI\\Injector -->
<g id="node4" class="node"><title>\\DI\\Injector</title>
<polygon fill="none" stroke="black" points="707,-60 637,-60 637,-24 707,-24 707,-60"/>
<text text-anchor="middle" x="672" y="-39.1" font-family="Courier,monospace" font-size="11.00">Injector</text>
</g>
<!-- \\Interop\\Container\\ContainerInterface -->
<g id="node11" class="node"><title>\\Interop\\Container\\ContainerInterface</title>
<ellipse fill="none" stroke="black" cx="252" cy="-42" rx="196.075" ry="18.3848"/>
<text text-anchor="middle" x="252" y="-38.4" font-family="Times Roman,serif" font-size="14.00" fill="gray">\Interop\Container\ContainerInterface</text>
</g>
<!-- \\DI\\Injector&#45;&gt;\\Interop\\Container\\ContainerInterface -->
<g id="edge8" class="edge"><title>\\DI\\Injector&#45;&gt;\\Interop\\Container\\ContainerInterface</title>
<path fill="none" stroke="black" stroke-dasharray="1,5" d="M636.191,-42C595.871,-42 527.017,-42 458.639,-42"/>
<polygon fill="none" stroke="black" points="458.557,-38.5001 448.557,-42 458.557,-45.5001 458.557,-38.5001"/>
</g>
<!-- \\DI\\DependencyException -->
<g id="node5" class="node"><title>\\DI\\DependencyException</title>
<polygon fill="none" stroke="black" points="744,-114 600,-114 600,-78 744,-78 744,-114"/>
<text text-anchor="middle" x="672" y="-93.1" font-family="Courier,monospace" font-size="11.00">DependencyException</text>
</g>
<!-- \\DI\\DependencyException&#45;&gt;\\RuntimeException -->
<g id="edge10" class="edge"><title>\\DI\\DependencyException&#45;&gt;\\RuntimeException</title>
<path fill="none" stroke="black" d="M599.353,-108.531C569.819,-113.402 535.329,-118.807 504,-123 454.329,-129.648 398.977,-135.724 352.829,-140.423"/>
<polygon fill="none" stroke="black" points="352.422,-136.946 342.825,-141.434 353.126,-143.91 352.422,-136.946"/>
</g>
<!-- \\Interop\\Container\\Exception\\ContainerException -->
<g id="node14" class="node"><title>\\Interop\\Container\\Exception\\ContainerException</title>
<ellipse fill="none" stroke="black" cx="252" cy="-96" rx="251.23" ry="18.3848"/>
<text text-anchor="middle" x="252" y="-92.4" font-family="Times Roman,serif" font-size="14.00" fill="gray">\Interop\Container\Exception\ContainerException</text>
</g>
<!-- \\DI\\DependencyException&#45;&gt;\\Interop\\Container\\Exception\\ContainerException -->
<g id="edge12" class="edge"><title>\\DI\\DependencyException&#45;&gt;\\Interop\\Container\\Exception\\ContainerException</title>
<path fill="none" stroke="black" stroke-dasharray="1,5" d="M599.321,-96C574.428,-96 544.951,-96 513.855,-96"/>
<polygon fill="none" stroke="black" points="513.706,-92.5001 503.706,-96 513.706,-99.5001 513.706,-92.5001"/>
</g>
</g>
</svg>
