<?xml version="1.0" encoding="UTF-8" standalone="no"?>
<!DOCTYPE svg PUBLIC "-//W3C//DTD SVG 1.1//EN"
 "http://www.w3.org/Graphics/SVG/1.1/DTD/svg11.dtd">
<!-- Generated by graphviz version 2.26.3 (20100126.1600)
 -->
<!-- Title: G Pages: 1 -->
<svg width="800pt" height="274pt"
 viewBox="0.00 0.00 800.00 274.00" xmlns="http://www.w3.org/2000/svg" xmlns:xlink="http://www.w3.org/1999/xlink">
<g id="graph1" class="graph" transform="scale(1 1) rotate(0) translate(4 270)">
<title>G</title>
<polygon fill="white" stroke="white" points="-4,5 -4,-270 797,-270 797,5 -4,5"/>
<g id="graph2" class="cluster"><title>cluster_Global</title>
<polyline fill="none" stroke="gray" points="572,-38 772,-38 "/>
<path fill="none" stroke="gray" d="M772,-38C778,-38 784,-44 784,-50"/>
<polyline fill="none" stroke="gray" points="784,-50 784,-246 "/>
<path fill="none" stroke="gray" d="M784,-246C784,-252 778,-258 772,-258"/>
<polyline fill="none" stroke="gray" points="772,-258 572,-258 "/>
<path fill="none" stroke="gray" d="M572,-258C566,-258 560,-252 560,-246"/>
<polyline fill="none" stroke="gray" points="560,-246 560,-50 "/>
<path fill="none" stroke="gray" d="M560,-50C560,-44 566,-38 572,-38"/>
<text text-anchor="middle" x="672" y="-244.1" font-family="Times Roman,serif" font-size="11.00" fill="gray">Global</text>
</g>
<g id="graph3" class="cluster"><title>cluster_\DI</title>
<polyline fill="none" stroke="gray" points="580,-46 764,-46 "/>
<path fill="none" stroke="gray" d="M764,-46C770,-46 776,-52 776,-58"/>
<polyline fill="none" stroke="gray" points="776,-58 776,-216 "/>
<path fill="none" stroke="gray" d="M776,-216C776,-222 770,-228 764,-228"/>
<polyline fill="none" stroke="gray" points="764,-228 580,-228 "/>
<path fill="none" stroke="gray" d="M580,-228C574,-228 568,-222 568,-216"/>
<polyline fill="none" stroke="gray" points="568,-216 568,-58 "/>
<path fill="none" stroke="gray" d="M568,-58C568,-52 574,-46 580,-46"/>
<text text-anchor="middle" x="672" y="-214.1" font-family="Times Roman,serif" font-size="11.00" fill="gray">DI</text>
</g>
<!-- \\DI\\Injector -->
<g id="node3" class="node"><title>\\DI\\Injector</title>
<polygon fill="none" stroke="black" points="707,-198 637,-198 637,-162 707,-162 707,-198"/>
<text text-anchor="middle" x="672" y="-177.1" font-family="Courier,monospace" font-size="11.00">Injector</text>
</g>
<!-- \\Interop\\Container\\ContainerInterface -->
<g id="node7" class="node"><title>\\Interop\\Container\\ContainerInterface</title>
<ellipse fill="none" stroke="black" cx="252" cy="-180" rx="196.075" ry="18.3848"/>
<text text-anchor="middle" x="252" y="-176.4" font-family="Times Roman,serif" font-size="14.00" fill="gray">\Interop\Container\ContainerInterface</text>
</g>
<!-- \\DI\\Injector&#45;&gt;\\Interop\\Container\\ContainerInterface -->
<g id="edge4" class="edge"><title>\\DI\\Injector&#45;&gt;\\Interop\\Container\\ContainerInterface</title>
<path fill="none" stroke="black" stroke-dasharray="1,5" d="M636.191,-180C595.871,-180 527.017,-180 458.639,-180"/>
<polygon fill="none" stroke="black" points="458.557,-176.5 448.557,-180 458.557,-183.5 458.557,-176.5"/>
</g>
<!-- \\DI\\ReferenceNotFoundException -->
<g id="node4" class="node"><title>\\DI\\ReferenceNotFoundException</title>
<polygon fill="none" stroke="black" points="768,-144 576,-144 576,-108 768,-108 768,-144"/>
<text text-anchor="middle" x="672" y="-123.1" font-family="Courier,monospace" font-size="11.00">ReferenceNotFoundException</text>
</g>
<!-- \\RuntimeException -->
<g id="node9" class="node"><title>\\RuntimeException</title>
<ellipse fill="none" stroke="black" cx="252" cy="-72" rx="103.238" ry="18.3848"/>
<text text-anchor="middle" x="252" y="-68.4" font-family="Times Roman,serif" font-size="14.00" fill="gray">\RuntimeException</text>
</g>
<!-- \\DI\\ReferenceNotFoundException&#45;&gt;\\RuntimeException -->
<g id="edge6" class="edge"><title>\\DI\\ReferenceNotFoundException&#45;&gt;\\RuntimeException</title>
<path fill="none" stroke="black" d="M575.737,-109.637C552.299,-105.9 527.278,-102.115 504,-99 454.329,-92.3524 398.977,-86.2756 352.829,-81.5775"/>
<polygon fill="none" stroke="black" points="353.126,-78.0898 342.825,-80.5659 352.422,-85.0543 353.126,-78.0898"/>
</g>
<!-- \\Interop\\Container\\Exception\\NotFoundException -->
<g id="node11" class="node"><title>\\Interop\\Container\\Exception\\NotFoundException</title>
<ellipse fill="none" stroke="black" cx="252" cy="-126" rx="251.023" ry="18.3848"/>
<text text-anchor="middle" x="252" y="-122.4" font-family="Times Roman,serif" font-size="14.00" fill="gray">\Interop\Container\Exception\NotFoundException</text>
</g>
<!-- \\DI\\ReferenceNotFoundException&#45;&gt;\\Interop\\Container\\Exception\\NotFoundException -->
<g id="edge8" class="edge"><title>\\DI\\ReferenceNotFoundException&#45;&gt;\\Interop\\Container\\Exception\\NotFoundException</title>
<path fill="none" stroke="black" stroke-dasharray="1,5" d="M575.907,-126C556.588,-126 535.425,-126 513.462,-126"/>
<polygon fill="none" stroke="black" points="513.318,-122.5 503.318,-126 513.318,-129.5 513.318,-122.5"/>
</g>
<!-- \\DI\\DependencyException -->
<g id="node5" class="node"><title>\\DI\\DependencyException</title>
<polygon fill="none" stroke="black" points="744,-90 600,-90 600,-54 744,-54 744,-90"/>
<text text-anchor="middle" x="672" y="-69.1" font-family="Courier,monospace" font-size="11.00">DependencyException</text>
</g>
<!-- \\DI\\DependencyException&#45;&gt;\\RuntimeException -->
<g id="edge10" class="edge"><title>\\DI\\DependencyException&#45;&gt;\\RuntimeException</title>
<path fill="none" stroke="black" d="M599.321,-72C534.965,-72 439.969,-72 365.586,-72"/>
<polygon fill="none" stroke="black" points="365.232,-68.5001 355.232,-72 365.232,-75.5001 365.232,-68.5001"/>
</g>
<!-- \\Interop\\Container\\Exception\\ContainerException -->
<g id="node14" class="node"><title>\\Interop\\Container\\Exception\\ContainerException</title>
<ellipse fill="none" stroke="black" cx="252" cy="-18" rx="251.23" ry="18.3848"/>
<text text-anchor="middle" x="252" y="-14.4" font-family="Times Roman,serif" font-size="14.00" fill="gray">\Interop\Container\Exception\ContainerException</text>
</g>
<!-- \\DI\\DependencyException&#45;&gt;\\Interop\\Container\\Exception\\ContainerException -->
<g id="edge12" class="edge"><title>\\DI\\DependencyException&#45;&gt;\\Interop\\Container\\Exception\\ContainerException</title>
<path fill="none" stroke="black" stroke-dasharray="1,5" d="M599.353,-59.4688C569.819,-54.5977 535.329,-49.193 504,-45 473.797,-40.9578 441.493,-37.1266 410.435,-33.6882"/>
<polygon fill="none" stroke="black" points="410.721,-30.1987 400.399,-32.5858 409.957,-37.1569 410.721,-30.1987"/>
</g>
</g>
</svg>
